<svg width="117" height="22" viewBox="0 0 117 22" fill="none" xmlns="http://www.w3.org/2000/svg">
<g clip-path="url(#clip0_1956_20045)">
<path d="M33.6467 0.03125C31.2503 0.03125 29.6635 2.74989 29.1777 3.77338V0.606962H23.9963V20.7569H29.1777V9.62645C29.1777 7.61146 30.4083 4.86083 32.74 4.86083C34.0029 4.86083 34.9097 5.43655 35.525 5.88432L37.3061 1.02275C36.4641 0.542994 35.4602 0.03125 33.6467 0.03125Z" fill="#333333"/>
<path d="M47.2804 17.1754C43.9772 17.1754 41.2894 14.4568 41.2894 10.7466C41.2894 6.68466 44.1715 4.22189 47.3128 4.22189C49.6768 4.22189 51.5227 5.43728 52.1379 6.01299L53.9514 2.30285C53.239 1.66317 50.4864 0 47.0861 0C40.7388 0 35.946 4.57371 35.946 10.6827C35.946 16.7916 40.5122 21.3333 46.5355 21.3333C51.1664 21.3333 53.8543 19.3503 54.6315 18.5827L52.9799 15.0325C52.397 15.6402 50.0654 17.1754 47.2804 17.1754Z" fill="#333333"/>
<path d="M90.5452 0.609375L86.3029 10.5564C85.979 11.292 85.4933 12.4754 85.299 13.2431H85.2666C85.0723 12.5394 84.5542 11.2281 84.2303 10.5564L79.9233 0.609375H74.2561L84.036 21.1751H86.5943L96.1799 0.609375H90.5452Z" fill="#333333"/>
<path d="M116.582 10.6507C116.582 4.95752 113.311 0 106.672 0C100.034 0 95.759 4.57371 95.759 10.7466C95.759 17.2074 100.325 21.3653 107.061 21.3653C111.627 21.3653 114.736 19.7981 115.805 18.8706L114.283 15.2884C113.538 15.992 111.336 17.2714 108.194 17.2714C105.053 17.2714 101.556 16.4078 101.005 12.6657H116.549V10.6827L116.582 10.6507ZM101.038 8.76362C101.653 5.7891 103.725 4.02998 106.705 4.02998C109.555 4.02998 111.303 6.2049 111.336 8.76362H101.038Z" fill="#333333"/>
<path d="M73.6085 12.8568V8.18717C73.6085 3.19767 71.8274 0.03125 65.0268 0.03125C61.756 0.03125 59.2301 0.862834 57.3842 1.7264L58.9063 5.37258C59.7159 5.02075 61.9503 4.18917 64.5734 4.18917C67.3584 4.18917 68.6214 5.3406 68.6214 7.00376V9.05074C67.4556 8.18717 64.8973 7.70741 63.5048 7.70741C59.6835 7.70741 55.1821 9.43455 55.1821 14.0722C55.1821 17.9743 58.0643 21.3966 64.3467 21.3966C67.6175 21.3966 70.7587 19.7334 72.4103 17.9423C72.7665 18.7099 73.0904 19.5415 73.3171 20.533L77.2031 19.6055C76.4583 16.535 75.0658 14.4241 73.6085 12.8888V12.8568ZM67.8442 16.3431C67.0346 16.8548 65.804 17.1747 64.3467 17.2386C62.0151 17.3346 60.5255 16.1832 60.4283 14.2641C60.3635 12.6649 61.9503 11.6734 63.7638 11.6095C65.2859 11.5455 66.8727 12.1532 67.6823 12.7609C67.6823 12.7609 68.9776 13.4965 68.9129 14.616C68.8805 15.7354 67.8118 16.3111 67.8118 16.3111L67.8442 16.3431Z" fill="#333333"/>
<path d="M18.4264 12.8577V8.18806C18.4264 3.19856 16.6453 0.0321438 9.84468 0.0321438C6.54153 0.000159793 4.04798 0.831744 2.2021 1.69531L3.72414 5.34149C4.53373 4.98966 6.76822 4.15808 9.3913 4.15808C12.1763 4.15808 13.4393 5.3095 13.4393 6.97267V9.01965C12.2735 8.15608 9.71514 7.67632 8.32264 7.67632C4.50135 7.67632 0 9.40346 0 14.0411C0 17.9432 2.88216 21.3655 9.16462 21.3655C12.4354 21.3655 15.5766 19.7023 17.2282 17.9112C17.5844 18.6788 17.9082 19.5104 18.1349 20.5019L22.021 19.5744C21.2762 16.5039 19.916 14.393 18.4264 12.8577ZM12.6621 16.344C11.8525 16.8557 10.6219 17.1756 9.16462 17.2395C6.83298 17.3355 5.34333 16.1841 5.24618 14.265C5.18141 12.6658 6.76822 11.6743 8.58171 11.6104C10.1037 11.5464 11.6906 12.1541 12.5001 12.7618C12.5001 12.7618 13.7955 13.4974 13.7307 14.6169C13.6984 15.7363 12.6297 16.312 12.6297 16.312L12.6621 16.344Z" fill="#333333"/>
</g>
<defs>
<clipPath id="clip0_1956_20045">
<rect width="116.582" height="21.3333" fill="white"/>
</clipPath>
</defs>
</svg>
