<svg width="76" height="14" viewBox="0 0 76 14" fill="none" xmlns="http://www.w3.org/2000/svg">
<g clip-path="url(#clip0_1161_7468)">
<path d="M3.5751 13.4989C2.6266 13.4989 1.82689 13.2757 1.21316 12.8108C0.599422 12.3458 0.283257 11.5833 0.283257 10.5418C0.283257 9.81649 0.432041 9.20276 0.748206 8.70061C1.06437 8.19846 1.47353 7.78931 1.97567 7.45454C2.47782 7.11978 3.03576 6.85941 3.64949 6.63623C4.26323 6.41306 4.85836 6.22708 5.4721 6.07829C6.08583 5.92951 6.62517 5.78073 7.10872 5.63194V4.38587C7.10872 3.26999 6.99713 2.54467 6.77396 2.20991C6.55078 1.87515 6.12303 1.70776 5.4907 1.70776C4.96995 1.70776 4.61659 1.83795 4.43061 2.07972C4.24463 2.3215 4.15164 2.82364 4.15164 3.56756C4.15164 4.1627 3.98426 4.59045 3.6309 4.85082C3.27753 5.1112 2.88698 5.24138 2.44062 5.24138C2.05007 5.24138 1.6967 5.0926 1.36194 4.81363C1.02718 4.53466 0.859794 4.08831 0.859794 3.49317C0.859794 2.97243 1.06437 2.48888 1.45493 2.04253C1.84549 1.59618 2.42203 1.24281 3.16595 0.982441C3.90987 0.722069 4.78397 0.554688 5.78826 0.554688C7.42489 0.554688 8.67095 0.870853 9.54506 1.48459C10.4192 2.09832 10.8469 3.13981 10.8469 4.59045V10.2442C10.8469 10.765 10.9213 11.0998 11.0515 11.2671C11.1817 11.4159 11.3863 11.5089 11.6652 11.5089C11.8698 11.5089 12.093 11.4345 12.2976 11.3043C12.5207 11.1741 12.7253 11.0068 12.9113 10.8022L13.4878 11.3787C13.0601 12.0297 12.5765 12.5318 12.0372 12.9224C11.5164 13.3129 10.7539 13.4989 9.78683 13.4989C8.81974 13.4989 8.2246 13.3501 7.90844 13.0525C7.59227 12.755 7.36909 12.2528 7.2761 11.5089L7.14592 10.9882V6.67343C6.47639 6.87801 5.89985 7.10118 5.4349 7.34296C4.96995 7.58473 4.63519 7.8823 4.39341 8.27286C4.15164 8.66341 4.04005 9.18416 4.04005 9.83509C4.04005 10.486 4.13304 10.951 4.33762 11.2485C4.5422 11.5461 4.83977 11.6949 5.23032 11.6949C5.62088 11.6949 5.95565 11.6019 6.27181 11.4159C6.58798 11.2299 6.97854 10.8952 7.44349 10.4116L7.59227 11.8623H7.20171C6.79256 12.2156 6.4206 12.5132 6.10443 12.755C5.78826 13.0153 5.4349 13.2013 5.06294 13.3315C4.69098 13.4617 4.20743 13.5361 3.5937 13.5361L3.5751 13.4989Z" fill="white"/>
<path d="M21.6338 13.2013H13.4506V12.1598C14.0272 12.1598 14.4363 12.104 14.7153 12.0111C14.9757 11.9181 15.1617 11.7321 15.2547 11.4717C15.3476 11.2113 15.3848 10.8394 15.3848 10.3558V3.99532C15.3848 3.53037 15.3104 3.15841 15.1803 2.91663C15.0315 2.67486 14.7525 2.54467 14.2876 2.54467C14.0272 2.54467 13.7668 2.54467 13.4878 2.60047V1.48459L17.5794 0.684873H19.0672V3.40018H19.1788C19.6438 2.78645 20.0343 2.2843 20.3319 1.85655C20.6295 1.42879 20.9456 1.11263 21.2804 0.889451C21.6152 0.666275 22.0615 0.554688 22.6009 0.554688C23.2704 0.554688 23.7725 0.740667 24.1073 1.13123C24.4421 1.52178 24.6094 2.04253 24.6094 2.69346C24.6094 3.43738 24.4421 3.97672 24.1073 4.31148C23.7725 4.64625 23.4192 4.81363 23.01 4.81363C22.6009 4.81363 22.3033 4.72064 22.0243 4.53466C21.764 4.34868 21.5222 4.1627 21.3362 3.99532C21.1502 3.80934 20.9828 3.71635 20.8341 3.71635C20.5551 3.71635 20.2761 3.82793 19.9785 4.03251C19.6996 4.25569 19.402 4.53466 19.1044 4.88802V10.2442C19.1044 10.8022 19.1788 11.2299 19.3462 11.5089C19.5136 11.7879 19.774 11.9925 20.1459 12.0854C20.5179 12.1784 21.0014 12.2342 21.6152 12.2342V13.2757L21.6338 13.2013Z" fill="white"/>
<path d="M35.8984 8.8122L36.568 9.22135C36.2146 9.98387 35.824 10.6906 35.3591 11.3415C34.8941 11.9925 34.3176 12.5132 33.5923 12.9038C32.867 13.2943 31.9371 13.4989 30.7654 13.4989C29.5937 13.4989 28.5336 13.2571 27.6595 12.7922C26.7854 12.3272 26.0973 11.6391 25.6323 10.7278C25.1488 9.81649 24.907 8.68201 24.907 7.32436C24.907 5.96671 25.1488 4.83223 25.6323 3.82794C26.1159 2.80505 26.8412 2.02393 27.8269 1.42879C28.8126 0.852255 30.0401 0.554688 31.5465 0.554688C33.0529 0.554688 34.206 0.833658 35.0429 1.373C35.8798 1.91234 36.3076 2.60047 36.3076 3.41878C36.3076 3.99532 36.1216 4.42307 35.7496 4.70204C35.3777 4.98101 34.9313 5.1112 34.4292 5.1112C33.927 5.1112 33.5737 4.99961 33.3505 4.77643C33.1087 4.55326 32.9413 4.27429 32.8112 3.93952C32.681 3.60476 32.5694 3.28859 32.4392 2.95383C32.309 2.63766 32.1416 2.35869 31.8999 2.13552C31.6581 1.91234 31.3047 1.80075 30.8398 1.80075C30.0401 1.80075 29.4635 2.17271 29.1288 2.89804C28.794 3.62336 28.6266 4.68344 28.6266 6.07829C28.6266 7.56613 28.8684 8.71921 29.3519 9.51892C29.8355 10.3186 30.7654 10.7092 32.1416 10.7092C33.0343 10.7092 33.7597 10.5418 34.3176 10.2256C34.8755 9.90948 35.4149 9.42593 35.8984 8.8122Z" fill="white"/>
<path d="M40.8641 13.4998C39.9156 13.4998 39.1159 13.2767 38.5021 12.8117C37.8884 12.3468 37.5722 11.5842 37.5722 10.5427C37.5722 9.81742 37.721 9.20369 38.0372 8.70154C38.3534 8.1994 38.7625 7.79024 39.2647 7.45548C39.7668 7.12071 40.3247 6.86034 40.9385 6.63717C41.5522 6.41399 42.1473 6.22801 42.7611 6.07923C43.3748 5.93044 43.9142 5.78166 44.3977 5.63287V4.38681C44.3977 3.27093 44.2861 2.54561 44.0629 2.21084C43.8398 1.87608 43.412 1.7087 42.7797 1.7087C42.2589 1.7087 41.9056 1.83888 41.7196 2.08066C41.5336 2.32243 41.4406 2.82458 41.4406 3.5685C41.4406 4.16363 41.2732 4.59139 40.9199 4.85176C40.5665 5.11213 40.176 5.24232 39.7296 5.24232C39.3391 5.24232 38.9857 5.09353 38.6509 4.81456C38.3162 4.53559 38.1488 4.08924 38.1488 3.4941C38.1488 2.97336 38.3534 2.48981 38.7439 2.04346C39.1345 1.59711 39.711 1.24375 40.4549 0.983375C41.1989 0.723003 42.073 0.574219 43.0772 0.574219C44.7139 0.574219 45.9599 0.890385 46.834 1.50412C47.7082 2.11785 48.1359 3.15934 48.1359 4.60998V10.2638C48.1359 10.7845 48.2103 11.1193 48.3405 11.2867C48.4707 11.4354 48.6752 11.5284 48.9542 11.5284C49.1588 11.5284 49.382 11.454 49.5865 11.3239C49.8097 11.1937 50.0143 11.0263 50.2003 10.8217L50.7768 11.3983C50.3491 12.0492 49.8655 12.5513 49.3262 12.9419C48.8054 13.3324 48.0429 13.5184 47.0758 13.5184C46.1087 13.5184 45.5136 13.3696 45.1974 13.0721C44.8813 12.7745 44.6581 12.2724 44.5651 11.5284L44.4349 11.0077V6.69296C43.7654 6.89754 43.1888 7.12071 42.7239 7.36249C42.2589 7.60426 41.9242 7.90183 41.6824 8.29239C41.4406 8.68295 41.329 9.20369 41.329 9.85462C41.329 10.5055 41.422 10.9705 41.6266 11.2681C41.8312 11.5656 42.1288 11.7144 42.5193 11.7144C42.9099 11.7144 43.2446 11.6214 43.5608 11.4354C43.877 11.2495 44.2675 10.9147 44.7325 10.4312L44.8813 11.8818H44.4907C44.0815 12.2352 43.7096 12.5327 43.3934 12.7745C43.0772 13.0349 42.7239 13.2209 42.3519 13.351C41.98 13.4812 41.4964 13.5556 40.8827 13.5556L40.8641 13.4998Z" fill="white"/>
<path d="M57.5651 13.3885H55.2775L51.3534 4.08948C51.1116 3.47575 50.8884 3.02939 50.6652 2.71323C50.4421 2.39706 50.2003 2.19248 49.9585 2.0809C49.6981 1.96931 49.4006 1.93211 49.0472 1.93211V0.890625H56.3562V1.93211C55.8169 1.93211 55.4449 2.0065 55.2032 2.11809C54.98 2.24828 54.8684 2.43426 54.8684 2.65743C54.8684 2.80622 54.887 2.9736 54.9428 3.15958C54.9986 3.34556 55.0544 3.51294 55.1288 3.69892L57.0072 8.25543L57.5837 9.89206H57.7883L58.4206 8.19964L60.392 3.58733C60.5036 3.23397 60.5408 2.9364 60.5408 2.65743C60.5408 2.35987 60.4292 2.17389 60.206 2.0809C59.9828 1.98791 59.6109 1.93211 59.1087 1.93211V0.890625H64.1116V1.93211C63.5908 1.93211 63.1817 2.0623 62.8841 2.32267C62.5866 2.58304 62.2704 3.08519 61.9542 3.81051L57.5837 13.3885H57.5651Z" fill="white"/>
<path d="M69.7096 13.4998C68.4449 13.4998 67.3662 13.2581 66.4921 12.7745C65.618 12.291 64.9485 11.5656 64.4835 10.6171C64.0186 9.66864 63.7954 8.49697 63.7954 7.12071C63.7954 5.63287 64.0744 4.40541 64.6509 3.43831C65.2275 2.47121 65.99 1.76449 66.9199 1.28094C67.8498 0.797395 68.9099 0.574219 70.0257 0.574219C71.681 0.574219 73.0014 1.07636 74.0057 2.08066C75.01 3.08495 75.5122 4.55419 75.5308 6.52558H67.3104V5.29811H71.4578C71.4578 4.59139 71.402 3.95905 71.309 3.41971C71.1974 2.88037 71.03 2.47121 70.7697 2.17365C70.5093 1.87608 70.1559 1.72729 69.691 1.72729C68.8913 1.72729 68.3519 2.08066 68.0544 2.76878C67.7568 3.45691 67.608 4.57279 67.608 6.13502C67.608 7.2881 67.7382 8.1808 67.9986 8.85033C68.2589 9.50126 68.6495 9.98481 69.1702 10.2638C69.691 10.5427 70.3233 10.6915 71.1044 10.6915C71.774 10.6915 72.3505 10.6171 72.834 10.487C73.3176 10.3568 73.7267 10.1522 74.0801 9.87322C74.4335 9.59425 74.7496 9.29668 75.0286 8.94332L75.6981 9.40827C75.4192 9.91041 75.1216 10.4126 74.824 10.8961C74.5265 11.3797 74.1545 11.826 73.7267 12.2166C73.299 12.6071 72.7596 12.9233 72.1273 13.1465C71.495 13.3882 70.6767 13.4998 69.7096 13.4998Z" fill="white"/>
</g>
<defs>
<clipPath id="clip0_1161_7468">
<rect width="75.3963" height="13" fill="white" transform="translate(0.301857 0.5)"/>
</clipPath>
</defs>
</svg>
