<svg viewBox="0 0 60 12" fill="none" xmlns="http://www.w3.org/2000/svg">
<g clip-path="url(#clip0_1956_20053)">
<path d="M17.8235 1.01562C16.6253 1.01562 15.8319 2.37495 15.589 2.88669V1.30348H12.9983V11.3784H15.589V5.81323C15.589 4.80573 16.2043 3.43042 17.3701 3.43042C18.0016 3.43042 18.455 3.71827 18.7626 3.94216L19.6532 1.51138C19.2322 1.2715 18.7302 1.01562 17.8235 1.01562Z" fill="white"/>
<path d="M24.6401 9.58771C22.9885 9.58771 21.6446 8.22838 21.6446 6.37331C21.6446 4.34233 23.0856 3.11094 24.6563 3.11094C25.8383 3.11094 26.7612 3.71864 27.0689 4.0065L27.9756 2.15142C27.6194 1.83158 26.2431 1 24.5429 1C21.3693 1 18.9729 3.28686 18.9729 6.34133C18.9729 9.3958 21.256 11.6667 24.2677 11.6667C26.5831 11.6667 27.927 10.6752 28.3156 10.2914L27.4898 8.51624C27.1984 8.82009 26.0326 9.58771 24.6401 9.58771Z" fill="white"/>
<path d="M46.2725 1.30469L44.1513 6.2782C43.9894 6.64602 43.7465 7.23772 43.6494 7.62153H43.6332C43.536 7.2697 43.277 6.61403 43.115 6.2782L40.9615 1.30469H38.1279L43.0179 11.5875H44.297L49.0898 1.30469H46.2725Z" fill="white"/>
<path d="M59.2908 6.32534C59.2908 3.47876 57.6554 1 54.3361 1C51.0167 1 48.8794 3.28686 48.8794 6.37331C48.8794 9.6037 51.1625 11.6827 54.5304 11.6827C56.8134 11.6827 58.3678 10.899 58.9022 10.4353L58.1412 8.64418C57.7688 8.996 56.6677 9.63568 55.0971 9.63568C53.5265 9.63568 51.7777 9.2039 51.5025 7.33283H59.2746V6.34133L59.2908 6.32534ZM51.5187 5.38181C51.8263 3.89455 52.8626 3.01499 54.3523 3.01499C55.7771 3.01499 56.6515 4.10245 56.6677 5.38181H51.5187Z" fill="white"/>
<path d="M37.8043 7.42842V5.09359C37.8043 2.59883 36.9137 1.01562 33.5134 1.01562C31.878 1.01562 30.615 1.43142 29.6921 1.8632L30.4531 3.68629C30.8579 3.51038 31.9752 3.09459 33.2867 3.09459C34.6792 3.09459 35.3107 3.6703 35.3107 4.50188V5.52537C34.7278 5.09359 33.4486 4.85371 32.7524 4.85371C30.8417 4.85371 28.5911 5.71727 28.5911 8.03611C28.5911 9.98714 30.0321 11.6983 33.1734 11.6983C34.8088 11.6983 36.3794 10.8667 37.2052 9.97115C37.3833 10.355 37.5452 10.7707 37.6585 11.2665L39.6016 10.8027C39.2291 9.2675 38.5329 8.21203 37.8043 7.44441V7.42842ZM34.9221 9.17155C34.5173 9.42742 33.902 9.58734 33.1734 9.61932C32.0076 9.6673 31.2627 9.09159 31.2142 8.13207C31.1818 7.33247 31.9752 6.83671 32.8819 6.80473C33.6429 6.77275 34.4363 7.07659 34.8411 7.38044C34.8411 7.38044 35.4888 7.74826 35.4564 8.30798C35.4402 8.8677 34.9059 9.15555 34.9059 9.15555L34.9221 9.17155Z" fill="white"/>
<path d="M10.2132 7.42887V5.09403C10.2132 2.59928 9.32264 1.01607 5.92234 1.01607C4.27076 1.00008 3.02399 1.41587 2.10105 1.84766L2.86207 3.67074C3.26687 3.49483 4.38411 3.07904 5.69565 3.07904C7.08816 3.07904 7.71964 3.65475 7.71964 4.48634V5.50982C7.13673 5.07804 5.85757 4.83816 5.16132 4.83816C3.25067 4.83816 1 5.70173 1 8.02057C1 9.97159 2.44108 11.6827 5.58231 11.6827C7.21769 11.6827 8.78831 10.8512 9.61409 9.9556C9.7922 10.3394 9.95412 10.7552 10.0675 11.251L12.0105 10.7872C11.6381 9.25195 10.958 8.19648 10.2132 7.42887ZM7.33103 9.17199C6.92624 9.42787 6.31094 9.58779 5.58231 9.61977C4.41649 9.66775 3.67166 9.09203 3.62309 8.13251C3.5907 7.33291 4.38411 6.83716 5.29085 6.80518C6.05187 6.77319 6.84528 7.07704 7.25007 7.38089C7.25007 7.38089 7.89775 7.74871 7.86537 8.30843C7.84918 8.86815 7.31484 9.156 7.31484 9.156L7.33103 9.17199Z" fill="white"/>
</g>
<defs>
<clipPath id="clip0_1956_20053">
<rect width="58.2909" height="10.6667" fill="white" transform="translate(1 1)"/>
</clipPath>
</defs>
</svg>
