<svg width="16" height="16" viewBox="0 0 16 16" fill="none" xmlns="http://www.w3.org/2000/svg">
<path d="M7.4 11H5C4.17 11 3.4625 10.7075 2.8775 10.1225C2.2925 9.5375 2 8.83 2 8C2 7.17 2.2925 6.4625 2.8775 5.8775C3.4625 5.2925 4.17 5 5 5H7.4V6.2H5C4.5 6.2 4.075 6.375 3.725 6.725C3.375 7.075 3.2 7.5 3.2 8C3.2 8.5 3.375 8.925 3.725 9.275C4.075 9.625 4.5 9.8 5 9.8H7.4V11ZM5.6 8.6V7.4H10.4V8.6H5.6ZM8.6 11V9.8H11C11.5 9.8 11.925 9.625 12.275 9.275C12.625 8.925 12.8 8.5 12.8 8C12.8 7.5 12.625 7.075 12.275 6.725C11.925 6.375 11.5 6.2 11 6.2H8.6V5H11C11.83 5 12.5375 5.2925 13.1225 5.8775C13.7075 6.4625 14 7.17 14 8C14 8.83 13.7075 9.5375 13.1225 10.1225C12.5375 10.7075 11.83 11 11 11H8.6Z" fill="#1A1A1A"/>
</svg>
